# xmcd
# 
# Track frame offsets:
#     150
#     19665
#     36885
#     54060
#     67805
#     79363
#     93860
#     109168
#     121358
#     143993
#     164113
#     184125
#     186453
#     204851
#     212303
#     233003
#     242810
#     265825
#     278563
#     344140
# 
# Disc length: 4799
# 
# Revision: 2
# Processed by: cddbd v1.5.2PL0 Copyright (c) Steve Scherf et al.
# Submitted via: fre:ac v1.0.17
# 
DISCID=1d12bd14
DTITLE=Raphael Saadiq - Instant Vintage
DYEAR=2002
DGENRE=Soul
TTITLE0=Doing what I can
TTITLE1=Body parts
TTITLE2=Be here
TTITLE3=Still Ray
TTITLE4=OPH
TTITLE5=You're the one that I like
TTITLE6=Excuse me
TTITLE7=Charlie Ray
TTITLE8=Different times
TTITLE9=Tick tock
TTITLE10=People
TTITLE11=Tek #1
TTITLE12=Faithful
TTITLE13=Make my day
TTITLE14=Blind man
TTITLE15=Tek #2
TTITLE16=Uptown
TTITLE17=What's life like
TTITLE18=Skyy, can you feel me
TTITLE19=What?
EXTD=YEAR: 2002
EXTT0=
EXTT1=
EXTT2=
EXTT3=
EXTT4=
EXTT5=
EXTT6=
EXTT7=
EXTT8=
EXTT9=
EXTT10=
EXTT11=
EXTT12=
EXTT13=
EXTT14=
EXTT15=
EXTT16=
EXTT17=
EXTT18=
EXTT19=
PLAYORDER=
